<?xml version="1.0"?>
<svg xmlns="http://www.w3.org/2000/svg" viewBox="0 0 512 512" width="512px" height="512px"><path d="m512 256c0-19.554688-12.539062-36.226562-30-42.421875v-93.578125c0-33.085938-26.914062-60-60-60s-60 26.914062-60 60v302c0 32.523438-28.394531 60-62 60-28.984375 0-53.234375-20.660156-58.796875-48.03125 16.828125-6.519531 28.796875-22.867188 28.796875-41.96875v-1.507812c34.191406-6.96875 60-37.273438 60-73.492188v-182c0-41.355469-33.644531-75-75-75h-16.484375c-2.894531-14.382812-9.964844-27.496094-20.609375-37.90625-13.9375-14.25-32.71875-22.09375-52.90625-22.09375s-38.96875 7.84375-52.90625 22.09375c-10.644531 10.410156-17.714844 23.523438-20.609375 37.90625h-16.484375c-41.355469 0-75 33.644531-75 75v182c0 36.21875 25.808594 66.523438 60 73.492188v1.507812c0 19.554688 12.539062 36.226562 30 42.421875v47.578125h30v-47.578125c17.460938-6.195313 30-22.867187 30-42.421875h30c0 19.890625 12.976562 36.796875 30.902344 42.726562 6.203125 43.621094 43.792968 77.273438 89.097656 77.273438 24.0625 0 46.949219-9.292969 64.445312-26.171875 17.769532-17.136719 27.554688-39.804687 27.554688-63.828125v-302c0-16.542969 13.457031-30 30-30s30 13.457031 30 30v93.578125c-17.460938 6.195313-30 22.867187-30 42.421875v136h30v120h30v-120h30zm-482-45h60v-30h-60v-31h60v-30h-57.421875c6.195313-17.460938 22.867187-30 42.421875-30h45v-15c0-12.089844 4.675781-23.292969 13.160156-31.546875l.292969-.292969c8.253906-8.484375 19.457031-13.160156 31.546875-13.160156s23.292969 4.675781 31.546875 13.160156l.292969.292969c8.484375 8.253906 13.160156 19.457031 13.160156 31.546875v15h45c24.8125 0 45 20.1875 45 45v106h-270zm90 151v30c0 8.269531-6.730469 15-15 15s-15-6.730469-15-15v-30h-15c-19.554688 0-36.226562-12.539062-42.421875-30h57.421875v-30h-60v-31h270v46c0 24.8125-20.1875 45-45 45h-15v30c0 8.269531-6.730469 15-15 15s-15-6.730469-15-15v-30zm362 0h-30v-106c0-8.269531 6.730469-15 15-15s15 6.730469 15 15zm0 0" fill="#FFFFFF"/><path d="m150 60h30v30h-30zm0 0" fill="#FFFFFF"/></svg>
