<?xml version="1.0" encoding="iso-8859-1"?>
<!-- Generator: Adobe Illustrator 19.0.0, SVG Export Plug-In . SVG Version: 6.00 Build 0)  -->
<svg version="1.1" id="Capa_1" xmlns="http://www.w3.org/2000/svg" xmlns:xlink="http://www.w3.org/1999/xlink" x="0px" y="0px"
	 viewBox="0 0 512 512" style="enable-background:new 0 0 512 512;" xml:space="preserve">
<g>
	<g>
		<path d="M332.568,49.798c-0.035-5.499-4.502-9.937-10-9.937H189.433c-5.498,0-9.965,4.439-10,9.937l-0.002,0.526
			c0,42.22,34.348,76.569,76.569,76.569s76.569-34.349,76.57-76.569L332.568,49.798z M256,106.893
			c-27.943,0-51.219-20.365-55.765-47.032h111.53C307.219,86.528,283.943,106.893,256,106.893z"/>
	</g>
</g>
<g>
	<g>
		<path d="M441.53,0H70.47C48.525,0,30.672,17.853,30.672,39.798v432.404C30.672,494.147,48.525,512,70.47,512h371.06
			c21.944,0,39.798-17.853,39.798-39.798V39.798C481.328,17.853,463.475,0,441.53,0z M368.444,20h73.086
			c10.917,0,19.798,8.881,19.798,19.798V93.12h-97.045c5.257-13.254,8.147-27.693,8.147-42.796
			C372.43,39.981,371.093,29.831,368.444,20z M164.428,20H347.57c3.228,9.74,4.86,19.911,4.86,30.324
			c0,53.172-43.259,96.43-96.431,96.43s-96.431-43.258-96.431-96.43C159.568,39.911,161.201,29.74,164.428,20z M50.672,39.798
			C50.672,28.881,59.553,20,70.47,20h73.086c-2.649,9.83-3.986,19.981-3.986,30.324c0,15.102,2.891,29.542,8.147,42.796H50.672
			V39.798z M461.328,472.202c0,10.917-8.881,19.798-19.798,19.798H70.47c-10.917,0-19.798-8.881-19.798-19.798v-39.238h410.656
			V472.202z M461.329,412.964H50.672V113.12h107.321c20.728,32.237,56.915,53.634,98.007,53.634
			c41.092,0,77.279-21.397,98.007-53.634h107.322V412.964z"/>
	</g>
</g>
<g>
	<g>
		<path d="M423.479,455.61c-0.13-0.63-0.319-1.26-0.569-1.87c-0.25-0.6-0.561-1.18-0.92-1.72c-0.37-0.55-0.78-1.06-1.25-1.52
			c-0.46-0.46-0.971-0.88-1.511-1.25c-0.549-0.36-1.129-0.67-1.729-0.92c-0.6-0.25-1.23-0.44-1.87-0.57c-1.29-0.26-2.62-0.26-3.91,0
			c-0.64,0.13-1.269,0.32-1.87,0.57c-0.6,0.25-1.18,0.56-1.73,0.92c-0.54,0.37-1.06,0.79-1.52,1.25c-0.46,0.46-0.88,0.97-1.24,1.52
			c-0.36,0.54-0.67,1.12-0.92,1.72c-0.25,0.61-0.439,1.24-0.569,1.87c-0.129,0.65-0.19,1.31-0.19,1.96s0.06,1.31,0.19,1.95
			c0.129,0.64,0.319,1.27,0.569,1.87c0.25,0.6,0.561,1.19,0.92,1.73c0.36,0.55,0.78,1.06,1.24,1.52c0.46,0.46,0.98,0.88,1.52,1.24
			c0.55,0.36,1.13,0.67,1.73,0.92c0.6,0.25,1.23,0.44,1.87,0.57c0.65,0.13,1.3,0.2,1.95,0.2c0.66,0,1.309-0.07,1.96-0.2
			c0.64-0.13,1.269-0.32,1.87-0.57c0.599-0.25,1.179-0.56,1.729-0.92c0.54-0.36,1.051-0.78,1.511-1.24
			c0.47-0.46,0.88-0.97,1.25-1.52c0.359-0.54,0.67-1.12,0.92-1.73c0.25-0.6,0.439-1.23,0.569-1.87s0.19-1.3,0.19-1.95
			C423.669,456.92,423.609,456.26,423.479,455.61z"/>
	</g>
</g>
<g>
	<g>
		<path d="M376.857,447.567h-87.744c-5.523,0-10,4.477-10,10s4.477,10,10,10h87.744c5.523,0,10-4.477,10-10
			S382.38,447.567,376.857,447.567z"/>
	</g>
</g>
<g>
	<g>
		<path d="M108.129,455.61c-0.13-0.64-0.32-1.26-0.57-1.87c-0.25-0.6-0.56-1.18-0.92-1.72c-0.37-0.55-0.78-1.06-1.24-1.52
			c-0.47-0.46-0.98-0.88-1.52-1.25c-0.549-0.36-1.129-0.67-1.73-0.92c-0.599-0.25-1.229-0.44-1.869-0.57
			c-1.29-0.26-2.62-0.26-3.91,0c-0.641,0.13-1.27,0.32-1.87,0.57s-1.18,0.56-1.73,0.92c-0.541,0.37-1.05,0.79-1.52,1.25
			c-0.46,0.46-0.88,0.97-1.24,1.52c-0.36,0.54-0.67,1.12-0.92,1.72c-0.25,0.61-0.44,1.23-0.57,1.87
			c-0.129,0.65-0.189,1.3-0.189,1.96c0,0.65,0.059,1.31,0.189,1.95s0.32,1.27,0.57,1.87c0.25,0.61,0.56,1.19,0.92,1.73
			c0.36,0.55,0.78,1.06,1.24,1.52c0.47,0.46,0.98,0.88,1.52,1.24c0.549,0.36,1.129,0.67,1.73,0.92c0.599,0.25,1.229,0.44,1.87,0.57
			c0.649,0.13,1.3,0.2,1.96,0.2c0.649,0,1.3-0.07,1.95-0.2c0.64-0.13,1.269-0.32,1.869-0.57c0.6-0.25,1.18-0.56,1.73-0.92
			c0.541-0.36,1.05-0.78,1.52-1.24c0.46-0.46,0.87-0.97,1.24-1.52c0.36-0.54,0.67-1.12,0.92-1.73c0.25-0.6,0.44-1.23,0.57-1.87
			s0.189-1.3,0.189-1.95C108.318,456.91,108.259,456.26,108.129,455.61z"/>
	</g>
</g>
<g>
	<g>
		<path d="M222.887,447.567h-87.744c-5.522,0-10,4.477-10,10s4.478,10,10,10h87.744c5.522,0,10-4.477,10-10
			S228.409,447.567,222.887,447.567z"/>
	</g>
</g>
<g>
	<g>
		<path d="M412.282,180.024c-12.758-19.039-32.318-29.059-56.606-28.892c-29.924,0.17-50.953,19.021-59.215,53.082
			c-4.524,18.649-4.375,38.899,0.432,58.562v-0.001c2.97,12.154,7.149,34.9,1.766,50.687c-5.294,15.523-5.65,33.247-0.974,48.629
			c5.236,17.229,16.079,29.882,30.53,35.628c6.985,2.777,14.171,4.091,21.179,4.091c20.492-0.002,39.417-11.245,47.012-30.02
			c6.526-16.135,8.611-31.058,10.629-45.489c2.071-14.823,4.027-28.824,10.543-44.425
			C432.036,247.256,429.908,206.325,412.282,180.024z M399.123,274.167c-7.51,17.983-9.74,33.937-11.895,49.365
			c-1.934,13.839-3.76,26.91-9.362,40.758c-5.977,14.777-25.326,21.577-42.262,14.844c-19.829-7.884-25.411-37.536-18.016-59.217
			c6.671-19.566,2.993-44.457-1.268-61.891v-0.001c-4.05-16.568-4.197-33.545-0.424-49.098
			c9.126-37.622,32.284-37.753,39.893-37.796c0.127-0.001,0.253-0.001,0.38-0.001c17.304,0,30.592,6.737,39.499,20.027
			C409.496,211.792,410.917,245.927,399.123,274.167z"/>
	</g>
</g>
<g>
	<g>
		<path d="M215.106,262.775c4.807-19.663,4.956-39.913,0.432-58.562c-8.262-34.061-29.291-52.912-59.215-53.082
			c-0.166-0.001-0.328-0.001-0.494-0.001c-24.043,0-43.44,9.985-56.112,28.893c-17.626,26.301-19.754,67.232-5.296,101.852
			c6.516,15.6,8.472,29.602,10.543,44.425c2.018,14.431,4.103,29.354,10.629,45.489c7.596,18.777,26.519,30.021,47.013,30.021
			c7.006,0,14.197-1.315,21.178-4.091c14.451-5.746,25.294-18.399,30.53-35.628c4.675-15.382,4.32-33.107-0.974-48.629
			C207.958,297.675,212.136,274.928,215.106,262.775z M194.413,319.918c7.394,21.68,1.813,51.332-18.016,59.216
			c-16.934,6.733-36.285-0.066-42.262-14.844c-5.601-13.848-7.427-26.92-9.362-40.758c-2.156-15.428-4.385-31.382-11.896-49.365
			c-11.794-28.24-10.373-62.376,3.455-83.01c8.907-13.291,22.193-20.027,39.499-20.027c0.126,0,0.254,0,0.381,0.002
			c7.61,0.043,30.767,0.174,39.893,37.796c3.772,15.553,3.626,32.53-0.424,49.098v0.001
			C191.42,275.461,187.741,300.352,194.413,319.918z"/>
	</g>
</g>
<g>
</g>
<g>
</g>
<g>
</g>
<g>
</g>
<g>
</g>
<g>
</g>
<g>
</g>
<g>
</g>
<g>
</g>
<g>
</g>
<g>
</g>
<g>
</g>
<g>
</g>
<g>
</g>
<g>
</g>
</svg>
